<svg id="Layer_1" data-name="Layer 1" xmlns="http://www.w3.org/2000/svg" xmlns:xlink="http://www.w3.org/1999/xlink" viewBox="0 0 3643.97 1883.57"><defs><style>.cls-1{fill:#bbcbea;}.cls-2,.cls-28{fill:#fff;}.cls-2{opacity:0.2;}.cls-3{fill:#92addb;}.cls-4{fill:url(#linear-gradient);}.cls-5{fill:url(#linear-gradient-2);}.cls-6{fill:#edf3fc;}.cls-7{fill:#133336;}.cls-8{fill:#f3d4b7;}.cls-9{fill:#fde3cb;}.cls-10{fill:url(#linear-gradient-3);}.cls-11{fill:#f9ddbf;}.cls-12{fill:url(#linear-gradient-4);}.cls-13{fill:url(#linear-gradient-5);}.cls-14{fill:url(#linear-gradient-6);}.cls-15{fill:url(#linear-gradient-7);}.cls-16{fill:url(#linear-gradient-8);}.cls-17{fill:#07575b;}.cls-18{fill:#dfb794;}.cls-19{fill:#cfa585;}.cls-20{fill:url(#linear-gradient-9);}.cls-21{fill:#82b378;}.cls-22{fill:#2d3a64;}.cls-23{fill:#2c488c;}.cls-24{fill:#243862;}.cls-25{fill:#233f76;}.cls-26{fill:#f7b17f;}.cls-27{fill:#ee9960;}.cls-29{fill:#d3671f;}.cls-30{fill:#36498c;}.cls-31{fill:#bd3f40;}.cls-32{fill:#a12f2f;}.cls-33{fill:#d68c5b;}.cls-34{fill:#1bb4b9;}.cls-35{fill:#bc8e6e;}.cls-36{fill:#923030;}.cls-37{fill:#f49749;}.cls-38{fill:#ee7d2c;}.cls-39{fill:#ee985e;}.cls-40{fill:#2e3552;}.cls-41{fill:url(#linear-gradient-10);}.cls-42{fill:url(#linear-gradient-11);}.cls-43{fill:url(#linear-gradient-12);}.cls-44{fill:url(#linear-gradient-13);}.cls-45{fill:url(#linear-gradient-14);}</style><linearGradient id="linear-gradient" x1="664.36" y1="959.01" x2="832.69" y2="959.01" gradientUnits="userSpaceOnUse"><stop offset="0" stop-color="#d7def2"/><stop offset="1" stop-color="#e6ecf9"/></linearGradient><linearGradient id="linear-gradient-2" x1="388.5" y1="1222.68" x2="932.31" y2="1222.68" xlink:href="#linear-gradient"/><linearGradient id="linear-gradient-3" x1="1867.09" y1="868.68" x2="2091.75" y2="868.68" gradientUnits="userSpaceOnUse"><stop offset="0" stop-color="#133336"/><stop offset="1" stop-color="#1bb4b9"/></linearGradient><linearGradient id="linear-gradient-4" x1="1759.91" y1="905.56" x2="2198.96" y2="905.56" xlink:href="#linear-gradient-3"/><linearGradient id="linear-gradient-5" x1="1759.91" y1="1373.87" x2="2198.96" y2="1373.87" xlink:href="#linear-gradient-3"/><linearGradient id="linear-gradient-6" x1="1320.83" y1="1373.87" x2="1515.41" y2="1373.87" xlink:href="#linear-gradient-3"/><linearGradient id="linear-gradient-7" x1="1320.83" y1="1039.58" x2="1515.41" y2="1039.58" xlink:href="#linear-gradient-3"/><linearGradient id="linear-gradient-8" x1="2532.12" y1="860.54" x2="2726.71" y2="860.54" xlink:href="#linear-gradient-3"/><linearGradient id="linear-gradient-9" x1="833.89" y1="1422.2" x2="1099.91" y2="1422.2" xlink:href="#linear-gradient-3"/><linearGradient id="linear-gradient-10" x1="2745.28" y1="435.08" x2="2468.78" y2="1015.13" gradientTransform="translate(4014.7 2313.49) rotate(180)" gradientUnits="userSpaceOnUse"><stop offset="0" stop-color="#e2473d"/><stop offset="1" stop-color="#e9615a"/></linearGradient><linearGradient id="linear-gradient-11" x1="-520.1" y1="2882.68" x2="-684.01" y2="3208.81" gradientTransform="matrix(0.66, -0.75, -0.75, -0.66, 4227.19, 2962.37)" gradientUnits="userSpaceOnUse"><stop offset="0" stop-color="#f2908f"/><stop offset="1" stop-color="#ee7065"/></linearGradient><linearGradient id="linear-gradient-12" x1="2515.33" y1="588.68" x2="2757.4" y2="1156.43" gradientTransform="translate(4014.7 2313.49) rotate(180)" gradientUnits="userSpaceOnUse"><stop offset="0" stop-color="#f28e86"/><stop offset="1" stop-color="#e874aa"/></linearGradient><linearGradient id="linear-gradient-13" x1="2553.67" y1="658.21" x2="2682.13" y2="1129.24" gradientTransform="translate(4014.7 2313.49) rotate(180)" gradientUnits="userSpaceOnUse"><stop offset="0" stop-color="#f7baba"/><stop offset="1" stop-color="#f2908f"/></linearGradient><linearGradient id="linear-gradient-14" x1="2591.31" y1="571.6" x2="2465.34" y2="1383.78" gradientTransform="translate(4014.7 2313.49) rotate(180)" xlink:href="#linear-gradient-11"/></defs><path class="cls-1" d="M3178.56,340.67c48.24,113,302.08,782.24-283.11,1133.24,0,0-280.53-397.54,265.2-1135.37A10.39,10.39,0,0,1,3178.56,340.67Z"/><path class="cls-2" d="M3150.7,460.57c2.3,41.4,2.79,82.76,2.55,124.15s-1.59,82.76-3.94,124.08-5.73,82.59-10.21,123.76c-1.2,10.28-2.19,20.58-3.56,30.85l-4,30.8c-3.05,20.48-5.93,41-9.61,61.38-3.31,20.46-7.51,40.75-11.52,61.08l-6.69,30.37c-2.13,10.14-4.9,20.14-7.32,30.22-10.16,40.2-21.71,80.12-36,119.13l-5.23,14.67-5.75,14.49-5.76,14.48-2.87,7.25-3.17,7.12-12.72,28.48-14,27.92c-19.32,36.87-41.4,72.41-67,105.47a6.37,6.37,0,0,1-10.07-7.81l0,0,.05-.07c25.28-32.14,47.23-66.87,66.53-103l14-27.41,12.77-28,3.19-7,2.89-7.14,5.8-14.28,5.79-14.28,5.28-14.49c14.43-38.51,26.18-78,36.57-117.87,2.47-10,5.3-19.9,7.49-30l6.88-30.13c4.13-20.18,8.46-40.34,11.91-60.67,3.8-20.26,6.83-40.66,10-61l4.21-30.64c1.45-10.21,2.51-20.47,3.78-30.71q7.14-61.47,11.09-123.27t4.84-123.72c.55-41.26.36-82.61-1.62-123.75v0a2.7,2.7,0,0,1,5.39-.28Z"/><path class="cls-3" d="M3429,587.22c38.75,123.89,236.6,852.16-373.87,1114.51,0,0-246.52-454.24,356.23-1119.68C3416.65,576.23,3426.48,579.13,3429,587.22Z"/><path class="cls-1" d="M3392.81,705.33c-1.42,41.09-4.39,81.93-8,122.79s-8.19,81.6-13.54,122.26-11.67,81.19-18.86,121.58-15.26,80.65-24.64,120.62-19.54,79.8-31.51,119.13-24.77,78.44-40,116.72c-29.85,76.69-67.14,151.1-116.08,218.26a9.37,9.37,0,0,1-15.15-11l0,0,.11-.15c48.3-64.78,85.88-137.51,116.18-213,15.44-37.64,28.6-76.24,40.85-115.1s22.84-78.29,32.57-117.92,18.24-79.57,25.82-119.7,14.3-80.43,20.12-120.87,10.77-81,14.83-121.68,7.44-81.45,9.3-122.16V705a4,4,0,0,1,7.93.32Z"/><path class="cls-3" d="M345.28,1394.29c20.56,53.33,151.73,358.6,434,281.93,0,0-39.36-224.12-429.37-288.54C346.54,1387.12,343.94,1390.81,345.28,1394.29Z"/><path class="cls-1" d="M392.61,1423c11.78,13.55,24.12,26.69,36.63,39.61s25.35,25.56,38.41,37.93,26.41,24.44,40,36.21S535.12,1560,549.33,1571s28.63,21.73,43.51,31.78,30,19.78,45.61,28.55c3.85,2.29,7.81,4.4,11.76,6.5s7.86,4.31,11.9,6.22l12,5.92,12.25,5.46A367.71,367.71,0,0,0,736.89,1673h.05a3.63,3.63,0,0,1-1.86,7h0c-35.21-9.72-68.42-25.13-99.69-43.36-15.72-9-30.86-19-45.73-29.25s-29.31-21.2-43.48-32.41-28-22.86-41.53-34.81S477.8,1516,464.8,1503.5s-25.71-25.34-38.15-38.41S402,1438.73,390.26,1425a1.54,1.54,0,0,1,2.33-2Z"/><path class="cls-1" d="M634.24,547.27c-25.26,84.76-152.11,584,295,787.2,0,0,168.12-307.18-282.36-790.19A7.49,7.49,0,0,0,634.24,547.27Z"/><path class="cls-4" d="M667.42,630.46c3.3,28,7.17,56,11.28,83.91s8.58,55.8,13.35,83.62c9.55,55.64,20.34,111.06,32.82,166.09s26.65,109.69,43.72,163.41q12.67,40.34,28.28,79.6c10.44,26.12,21.93,51.84,35.36,76.46v0a3.63,3.63,0,1,1-6.37,3.47v0c-13.48-25.06-24.89-51.08-35.25-77.45s-19.63-53.16-27.94-80.21c-16.81-54.06-30.63-108.95-42.84-164.15S697.2,854.43,688,798.67q-6.91-41.82-12.85-83.78c-3.94-28-7.65-56-10.77-84.1a1.54,1.54,0,0,1,3-.35Z"/><path class="cls-1" d="M318.64,781.27c3.6,111.93,51.15,762.45,669.61,827.47,0,0,78.93-436.32-655.63-836.12A9.47,9.47,0,0,0,318.64,781.27Z"/><path class="cls-5" d="M391.47,868.16c14.17,34.81,29.82,69.09,46.12,103s33.48,67.42,51.45,100.49c36,66.1,75.07,130.53,118.25,192.13s90.47,120.37,143.62,173.47c13.23,13.31,27,26.11,41,38.55s28.54,24.36,43.47,35.69a604.26,604.26,0,0,0,94.89,59.81l0,0a3.63,3.63,0,1,1-3.27,6.48h0a611,611,0,0,1-95.73-61q-22.53-17.27-43.67-36.2c-14.1-12.59-27.87-25.54-41.13-39-53.23-53.69-100.39-113-143.46-174.9S521.14,1140,485.42,1073.61q-26.78-49.81-51.08-100.89c-16.17-34.06-31.66-68.41-45.73-103.44a1.53,1.53,0,1,1,2.85-1.14Z"/><path class="cls-6" d="M546.76,1721.52c.13.09,2603.37-.31,2603.37-.31,80.22-164.36,122.53-346.45,77.31-524.51-54.24-213.56-236.38-357-357.4-411.91-99.19-45.14-191.13-51-272.46-43.54-62.88,5.79-119.43,19.57-168.07,29.4-34.32,7-66.51,12.26-93.38,10.51-44.63-2.92-79.61-34.86-111.06-68.13-111.49-117.81-239.15-321.46-695-345.83C1394.58,360,1238,372,1112.69,424.09,1059.43,446.24,858.76,545.36,799.89,713c-18.6,52.92-23.06,112.66-4.31,179,66.36,234.65-34.68,263.85-161.09,375.68C465.76,1416.92,411.43,1618.29,546.76,1721.52Z"/><polygon class="cls-7" points="1216.35 832.3 1216.35 1159.85 658.66 1159.85 678.66 832.3 1216.35 832.3"/><rect class="cls-8" x="2262.63" y="767.34" width="639.28" height="958.16"/><rect class="cls-8" x="1216.31" y="705.5" width="764.8" height="1017.61"/><rect class="cls-7" x="1185.81" y="364.27" width="1093.29" height="496.32"/><polygon class="cls-8" points="1767.62 796.44 2342.39 253 2917.17 796.44 1767.62 796.44"/><path class="cls-7" d="M2963.74,849.85a21.07,21.07,0,0,1-14.35-5.62l-607-528.1c-193.34,176-417.9,345.58-424.65,350.07a21.11,21.11,0,0,1-24.4-34.43c13.91-11.51,267.21-241.73,434.85-394.38a21.15,21.15,0,0,1,28.56.12l621.34,575.73a21.12,21.12,0,0,1-14.35,36.61Z"/><rect class="cls-9" x="1598.71" y="705.5" width="764.8" height="1017.61"/><polygon class="cls-9" points="1598.71 705.5 1981.11 343.94 2363.51 705.5 1703.99 708 1598.71 705.5"/><path class="cls-10" d="M2091.75,825.4v196.92H1867.09V829.2a113.58,113.58,0,0,1,37-84.17,105.06,105.06,0,0,1,11.68-9.29,89.37,89.37,0,0,1,12.53-7.75,113.3,113.3,0,0,1,52.93-13,107.24,107.24,0,0,1,52.64,13.52,68.64,68.64,0,0,1,12.53,7.88A99.92,99.92,0,0,1,2057,745,110.06,110.06,0,0,1,2091.75,825.4Z"/><path class="cls-11" d="M2095.48,795.84H1864.25l3.58-9.51a120.55,120.55,0,0,1,31.54-46.5,111.63,111.63,0,0,1,12.44-9.89,93.18,93.18,0,0,1,13.28-8.2A120.94,120.94,0,0,1,1981.24,708a113.73,113.73,0,0,1,56.09,14.41,76,76,0,0,1,13.43,8.48,102.17,102.17,0,0,1,11,9,118.13,118.13,0,0,1,30.46,46.64Zm-210.36-14.07h190a105.1,105.1,0,0,0-23-31.63,90.17,90.17,0,0,0-9.73-7.92,63.38,63.38,0,0,0-11.59-7.33,100.16,100.16,0,0,0-49.57-12.81,106.72,106.72,0,0,0-49.63,12.14,77.53,77.53,0,0,0-11.56,7.15,96.53,96.53,0,0,0-11.16,8.83A107.16,107.16,0,0,0,1885.12,781.77Z"/><rect class="cls-12" x="1759.91" y="788.85" width="439.05" height="233.43"/><rect class="cls-11" x="1972.4" y="788.84" width="14.08" height="233.43"/><rect class="cls-11" x="1765.09" y="860.54" width="424.25" height="7.04"/><rect class="cls-11" x="1765.09" y="937.23" width="424.25" height="7.04"/><rect class="cls-11" x="1874.74" y="788.84" width="14.08" height="233.43"/><rect class="cls-11" x="2070.05" y="788.84" width="14.08" height="233.43"/><rect class="cls-11" x="2184.89" y="788.84" width="14.08" height="233.43"/><rect class="cls-11" x="1759.91" y="788.84" width="14.08" height="233.43"/><rect class="cls-11" x="1759.93" y="1008.21" width="439.05" height="14.08"/><rect class="cls-11" x="1759.93" y="788.84" width="439.05" height="14.08"/><path class="cls-11" d="M2046.42,736.44l-66.3,70.24-64.33-70.94a89.37,89.37,0,0,1,12.53-7.75l51.94,57.29,53.63-56.72A68.64,68.64,0,0,1,2046.42,736.44Z"/><rect class="cls-13" x="1759.91" y="1257.16" width="439.05" height="233.43"/><rect class="cls-11" x="1972.4" y="1257.15" width="14.08" height="233.43"/><rect class="cls-11" x="1765.09" y="1328.84" width="424.25" height="7.04"/><rect class="cls-11" x="1765.09" y="1405.54" width="424.25" height="7.04"/><rect class="cls-11" x="1874.74" y="1257.15" width="14.08" height="233.43"/><rect class="cls-11" x="2070.05" y="1257.15" width="14.08" height="233.43"/><rect class="cls-11" x="2184.89" y="1257.15" width="14.08" height="233.43"/><rect class="cls-11" x="1759.91" y="1257.15" width="14.08" height="233.43"/><rect class="cls-11" x="1759.93" y="1476.51" width="439.05" height="14.08"/><rect class="cls-11" x="1759.93" y="1257.15" width="439.05" height="14.08"/><rect class="cls-14" x="1320.83" y="1257.16" width="194.58" height="233.43"/><rect class="cls-11" x="1503.33" y="1257.15" width="12.09" height="233.43"/><rect class="cls-11" x="1323.13" y="1328.84" width="188.02" height="7.04"/><rect class="cls-11" x="1323.13" y="1405.54" width="188.02" height="7.04"/><rect class="cls-11" x="1411.09" y="1257.15" width="12.09" height="233.43"/><rect class="cls-11" x="1320.83" y="1257.15" width="12.09" height="233.43"/><rect class="cls-11" x="1320.84" y="1476.51" width="194.58" height="14.08"/><rect class="cls-11" x="1320.84" y="1257.15" width="194.58" height="14.08"/><rect class="cls-15" x="1320.83" y="922.87" width="194.58" height="233.43"/><rect class="cls-11" x="1503.33" y="922.87" width="12.09" height="233.43"/><rect class="cls-11" x="1323.13" y="994.56" width="188.02" height="7.04"/><rect class="cls-11" x="1323.13" y="1071.26" width="188.02" height="7.04"/><rect class="cls-11" x="1411.09" y="922.87" width="12.09" height="233.43"/><rect class="cls-11" x="1320.83" y="922.87" width="12.09" height="233.43"/><rect class="cls-11" x="1320.84" y="1142.23" width="194.58" height="14.08"/><rect class="cls-11" x="1320.84" y="922.87" width="194.58" height="14.08"/><rect class="cls-16" x="2532.12" y="743.82" width="194.58" height="233.43"/><rect class="cls-11" x="2714.63" y="743.82" width="12.09" height="233.43"/><rect class="cls-11" x="2534.42" y="815.51" width="188.02" height="7.04"/><rect class="cls-11" x="2534.42" y="892.21" width="188.02" height="7.04"/><rect class="cls-11" x="2622.39" y="743.82" width="12.09" height="233.43"/><rect class="cls-11" x="2532.12" y="743.82" width="12.09" height="233.43"/><rect class="cls-11" x="2532.13" y="963.18" width="194.58" height="14.08"/><rect class="cls-11" x="2532.13" y="743.82" width="194.58" height="14.08"/><path class="cls-17" d="M1544.76,760.69a21.11,21.11,0,0,1-12.71-38C1546,711.21,1799.26,481,1966.89,328.33a21.15,21.15,0,0,1,28.57.13l427,395.63a21.12,21.12,0,0,1-28.7,31L1976.41,416.42c-181.11,155.63-413.21,336.23-420,340.73A21,21,0,0,1,1544.76,760.69Z"/><rect class="cls-9" x="689.86" y="1159.9" width="526.44" height="559.39"/><rect class="cls-7" x="2363.55" y="1016.98" width="565.01" height="224.65"/><path class="cls-18" d="M2592.29,1317.88h9.22a96.73,96.73,0,0,1,96.73,96.73v248.68a0,0,0,0,1,0,0H2494.43a0,0,0,0,1,0,0V1415.74A97.86,97.86,0,0,1,2592.29,1317.88Z"/><path class="cls-19" d="M2678.87,1421.8v4.51H2513.76v-3.66A79.24,79.24,0,0,1,2593,1343.4h7.46A78.33,78.33,0,0,1,2678.87,1421.8Z"/><rect class="cls-19" x="2513.76" y="1451.89" width="165.11" height="66.36"/><rect class="cls-19" x="2513.76" y="1540.16" width="165.11" height="108.46"/><rect class="cls-18" x="2443.7" y="1659.51" width="305.27" height="21.99"/><rect class="cls-18" x="2417.88" y="1681.51" width="356.93" height="21.99"/><rect class="cls-18" x="2396.66" y="1703.5" width="399.36" height="21.99"/><rect class="cls-20" x="833.89" y="1262.64" width="266.02" height="319.13"/><rect class="cls-11" x="1083.4" y="1262.63" width="16.53" height="319.13"/><rect class="cls-11" x="837.03" y="1360.64" width="257.05" height="9.62"/><rect class="cls-11" x="837.03" y="1465.5" width="257.05" height="9.62"/><rect class="cls-11" x="957.29" y="1262.63" width="16.53" height="319.13"/><rect class="cls-11" x="833.89" y="1262.63" width="16.53" height="319.13"/><rect class="cls-11" x="833.91" y="1562.53" width="266.02" height="19.24"/><rect class="cls-11" x="833.91" y="1262.63" width="266.02" height="19.24"/><polygon class="cls-17" points="1036.88 1159.85 598.66 1159.85 678.66 832.3 891.34 832.3 1036.88 1159.85"/><path class="cls-17" d="M1483.52,860.59H1185.81V364.27h111.9C1329.67,452.66,1427.64,712.65,1483.52,860.59Z"/><polygon class="cls-17" points="2928.57 1016.98 2928.57 1241.63 2554.71 1241.63 2703.07 1016.98 2928.57 1016.98"/><path class="cls-8" d="M1513.54,336h37.78a10.88,10.88,0,0,1,10.88,10.88V471.05a0,0,0,0,1,0,0h-59.75a0,0,0,0,1,0,0V347.1A11.09,11.09,0,0,1,1513.54,336Z"/><polygon class="cls-17" points="1488.44 323.28 1575.54 323.28 1532.33 282.09 1488.44 323.28"/><polygon class="cls-17" points="1513.94 336.02 1510.06 336.02 1509.47 322.11 1514.79 322.11 1513.94 336.02"/><polygon class="cls-17" points="1553.87 336.02 1549.99 336.02 1549.4 322.11 1554.72 322.11 1553.87 336.02"/><path class="cls-21" d="M3054,1717.84h-72.85c-3.9-3.31,2.7-10.83,9.61-11.33,3-.23,6.78.4,11.12,1.31,1-13.31,6.72-73.17,28.3-70.77,24.26,2.7,0,26.36-6.86,40.38-5.08,10.37-10.44,25.26-12.89,32.28,2,.43,4,.85,6.09,1.23,3.22-9.87,15.18-43.08,30.4-41.15,17.86,2.27,10.68,15.58-2,23.49-9.29,5.81-20.69,14.07-26.12,18.06a76.87,76.87,0,0,0,14.25,1.14C3045.52,1712.19,3051.61,1715.86,3054,1717.84Z"/><path class="cls-21" d="M1216.39,1525.34v194.22l-458.9.13s14.68-52.07,72.49-80.53a133.4,133.4,0,0,1,17.86-7.52,187.72,187.72,0,0,1,24.63-6.64.45.45,0,0,0,.38-.13,82.87,82.87,0,0,0,11.49-3.06c81.67-27.44,85.37-154.41,319.8-99.54Q1210.46,1523.8,1216.39,1525.34Z"/><path class="cls-21" d="M864.29,1651.65s-68.79-91.37-99.58-66.73S864.29,1651.65,864.29,1651.65Z"/><path class="cls-21" d="M884.82,1642.41c0-4.11,1-88.29-27.72-82.13S884.82,1642.41,884.82,1642.41Z"/><path class="cls-22" d="M956.66,732.18c-.44-2.4-6.08-28.12-45.88-23.73,0,0,19.81-.51,24.42,7.56,0,0-14.8-8.65-25.1-3.68s-13.9,24.81-13.06,31,9.75,25.42,16.85,26.13a21.24,21.24,0,0,0,8.3-1.19,94.59,94.59,0,0,0-3.94,10.26c-11.09,34.73,9.8,64.07,22.67,58.62,8.25-3.49,12.81,10.8,12.81,10.8l73.56-79.58S987.48,709.51,956.66,732.18Z"/><path class="cls-23" d="M1052.48,1690.62l-17.89,6.66s-77.7-107.77-87.27-202.59c-1.71-16.93-1.14-33.34,2.56-48.48,0,0-.76-4.34-2.09-12-.62-3.58-1.37-7.89-2.24-12.82-2.52-14.48-6-34.28-10-56.83-9.15-51.9-21-118.24-30.19-167l4.82-1.55,52.16-16.82,10.77-34.24,38.84-10.22s8.68,17,16.43,97.14c1.43,10.52,2.73,22.11,3.71,34.69a685.87,685.87,0,0,1-3.69,140.44q-2.67,20.89-6.82,43.1c-2.05,10.84-2.35,25.6-1.49,42.56C1024,1570.15,1052.48,1690.62,1052.48,1690.62Z"/><path class="cls-24" d="M1032.12,1266.54,947.79,1434.2c-.62-3.58-1.37-7.89-2.24-12.82-2.52-14.48-6-34.28-10-56.83-9.15-51.9-21-118.24-30.19-167l4.82-1.55,52.16-16.82,10.77-34.24,38.84-10.22s8.68,17,16.43,97.14C1029.84,1242.37,1031.14,1254,1032.12,1266.54Z"/><path class="cls-23" d="M995,1156.22l-.09.4c-.27,1.11-1.09,4.5-2.27,9.35-5.61,23.08-19.3,79.09-20.13,79-7.52,52.53-18.83,120.59-32.87,172.9-7.44,27.67-15.62,50.93-24.44,65.17-3,4.89-6.33,13.06-9.77,23.47-20.29,61.35-45.26,200.21-45.26,200.21l-11.39,4.6s-43.88-124.79-5.86-226.11a192.67,192.67,0,0,1,14.31-30.08,5.88,5.88,0,0,0,.94-3.62.11.11,0,0,0,0,0c-.5-4.21-1.72-14.78-3.12-29.63-3.88-41-7.59-179.46-9.61-212a173.43,173.43,0,0,1,.94-33.08c2.43-19,7.92-33.26,13.27-43.21,6.76-12.57,13.31-18.32,13.31-18.32s87.4,33,120.1,24.27Z"/><path class="cls-25" d="M994.92,1164.5a24.49,24.49,0,0,1-2.26,1.47c-30.14,17.62-135.87,11.43-146.27,10.77,2.43-19,7.92-33.26,13.27-43.21,45.22,4,120.18,12.15,135.27,23.09C998.36,1159.11,998.71,1161.74,994.92,1164.5Z"/><path class="cls-26" d="M1163.6,1128.78l-5.31,15.69s-1.06-.19-2.9-.66c-5.79-1.46-19.91-4.83-35.72-9.47-23.82-6.77-51.83-16.22-62-25.34-15.54-13.81-38.3-51.62-51.07-87.63a22.12,22.12,0,0,1-.9-2.63c-6.6-19.08-10.3-37.49-8.36-51.31a69.89,69.89,0,0,1,6.2-21.44A56.63,56.63,0,0,1,1017,928a10.2,10.2,0,0,1,2.27-1.93c7.76-6.44,13.22-10.81,13.22-10.81,3.44-.76,8,3.77,10.9,8.28,0,0,4.71,9,6.72,15.38.11.16.22.32.19.45.45,1.32.88,2.77,1.42,4.38a3.85,3.85,0,0,1,.36,1q1.37,5,2.67,10.39c10,38.66,17.65,95.9,29.27,114.64,5,8.06,31.21,26.81,52.17,41.05C1151.23,1121.05,1163.6,1128.78,1163.6,1128.78Z"/><path class="cls-26" d="M1023.42,953c-9.48,6.18-21.29,11.17-36,14.14-55.21,11.12-74.92-35.83-81.92-67.87a47.14,47.14,0,0,1,18.74-5.19c4-.35,8.16-.55,11.62-.62,6.29-4.54,16-23.59,18.88-53.51l2.57.76,42.89,13s-2.37,13.69-3.7,26.65c-1,10.14-1.43,19.85.43,22.28,3.35.83,5.36,1.36,5.36,1.36a.06.06,0,0,0,0,0A279.28,279.28,0,0,1,1023.42,953Z"/><path class="cls-23" d="M1042.64,987.52c-.26,1.17-.56,2.32-.91,3.51C1032,1023.43,1024.2,1153,1024.2,1153c7,22.07-170.54,20.22-174-.3-9.28-20.94,13.44-60,26.57-79.91a50.58,50.58,0,0,0,8.34-29.63c-1.16-29.63-6.3-56.81-8.46-73.47h0c2.73-2.72,5.39-5.24,7.86-7.64A79.18,79.18,0,0,0,894,951.58c2.56-3.62,4-7.14,3.66-10.85a54,54,0,0,0-1.44-8.43c-.33-1.33-.7-2.65-1.09-4a116,116,0,0,0-12-25.76c14.06-8.21,41.13-8.47,41.13-8.47s.19,1.48.52,3.9c1.32,9.71,5,34.6,8.82,38.86,4.74,5.31,79.6,20.7,82.2,12.19s-12.89-43.6-13.47-44.94a.06.06,0,0,1,0,0c25.18,5.9,34.83,12.51,34.83,12.51C1024.11,928,1049.47,956.46,1042.64,987.52Z"/><path class="cls-27" d="M1000.19,853.8s-2.37,13.67-3.7,26.65c-24.42-3.15-35.13-26.78-39.2-39.7Z"/><path class="cls-26" d="M1007.14,866.91s-58-4.85-54.47-40.95-1.51-61,35.7-59.47,43,16.06,44.77,28.4S1022.33,867.24,1007.14,866.91Z"/><path class="cls-22" d="M1033.43,774.65c-7.87-11.76-14.88-10-19-7.17-29.92-20.58-65.78-1.06-65.78-1.06a322.89,322.89,0,0,1-13.76,42.65s9.91,7.59,34.88,3.76c7.63-1.17,14.8-5.79,21.09-11.63a136,136,0,0,1-26.11,26.09c30.43-10.54,46.16-49.82,47.75-54,3.22,3.53,9.5,11.13,11,18.11,2,9.48,1.37,28.53,7,28.44C1030.4,819.86,1045.23,792.27,1033.43,774.65Z"/><path class="cls-24" d="M971.32,1117.49c-34.29,4.61-68.45-26.74-90.29-52.59a49.94,49.94,0,0,0,4.1-21.78c-1.16-29.63-6.3-56.81-8.46-73.47h0c2.73-2.72,5.39-5.24,7.86-7.64A79.18,79.18,0,0,0,894,951.58C928.87,994.91,1017.82,1111.24,971.32,1117.49Z"/><path class="cls-26" d="M1091,1129.24l6.07,20.59s-15.32-3.48-24.91-4.42c-2.88-.29-4.53-.55-4.53-.55-7.69-.83-16.9-2.07-26.93-3.37h-.14c-17.21-2.58-36.52-5.8-52.9-9.82-11.53-2.93-21.61-6.27-28.58-9.88a15.68,15.68,0,0,1-2-1.19c-16.78-10.09-38.46-42.18-56.16-77.06-2.46-4.82-4.79-9.65-7.09-14.34-8.31-17.49-15.26-34.83-19.82-49.92a144.58,144.58,0,0,1-5.77-24.1,58.51,58.51,0,0,1-.73-6.87c-.1-1.24-.18-2.46-.23-3.65,6.78-5.93,22.42-17,43.75-15.87l1.33,2.31c9.2,16.73,19.24,38.56,28.74,60.29,5.25,11.91,10.35,23.84,15.38,34.82,2.9,6.67,5.76,13,8.43,18.7,5.16,11,9.73,19.81,13.61,25.31,2.49,3.6,9.15,8.32,17.89,13.54,15.2,9.15,37.19,19.87,56.29,28.54,7.93,3.66,15.42,7,21.64,9.68C1084.35,1126.42,1091,1129.24,1091,1129.24Z"/><path class="cls-23" d="M912.29,931.17c-26.59-4.9-44.86,17.11-44.86,17.11-3.06-39.08,15.92-46.11,15.92-46.11C890.89,898.25,901.12,911,912.29,931.17Z"/><path class="cls-24" d="M915,1720.66H824.9s-2.16-13.74,2.54-24.16c4.51-10,11.58-14.54,9.89-26.63,5.72,5.89,15,12.49,28.08,10.74,1.6,2.59,10.3,16.44,15.63,20.27C886.93,1705.11,913.19,1703.6,915,1720.66Z"/><path class="cls-24" d="M1108.47,1720.66h-90.1s-3.37-14.38,2.54-24.16c5.24-8.65,3.23-13.58-.65-20.74a35.11,35.11,0,0,0,15.18,2.86c4.49-.26,9.24-2.29,13.4-4.71,3.88,4.42,20.49,23.24,25.67,27C1080.4,1705.11,1106.66,1703.6,1108.47,1720.66Z"/><path class="cls-28" d="M993.3,846s.81,4.78,12.57,4.79c0,0,9.88,0,9.9-5.18C1015.77,845.64,1006.46,841.35,993.3,846Z"/><path class="cls-27" d="M1296.72,997.63c-3.81-1.46-8.5,14.66-11.43,15.24s-1.76-4.39-4.38-5.17-3.83,13.08-1.78,18.42a33.22,33.22,0,0,1,1.77,11.69s-17.44,67.33-21.19,74.87-65.2,62.35-65.2,62.35l13.51,43.66s72.39-66.89,78.56-82.62,9-96.47,9-96.47,5.41-11.64,6.59-23.36S1300.53,999.1,1296.72,997.63Z"/><path class="cls-27" d="M1108.83,1170.18s-42.6-55.15-63.33-72.27c0,0-28.36-69.92-30.66-74.53a2.25,2.25,0,0,0-.41-.55,36.92,36.92,0,0,1-.21-12.85c1.24-6.31-2.76-21.45-5.52-20.08s-.49,6.66-3.85,6.58-11.66-17.05-15.6-14.69-6,8.9-2.41,21.66c3,10.63,9.16,20.62,11.15,23.67l-.18.1s10.42,68,21.4,88.12,45,87.76,69.08,90.27S1108.83,1170.18,1108.83,1170.18Z"/><path class="cls-29" d="M1237.46,1689.12s4.82,9.39,15.48,11.71a26.69,26.69,0,0,1,16,9.86,6.26,6.26,0,0,1-5,10h-54.11a7.79,7.79,0,0,1-7.75-8.57c.4-4,.83-8.67,1-12.25.4-7.82,8.23-14.11,8.23-14.11Z"/><path class="cls-30" d="M1238.77,1691.48s-13,7.67-35,3c0,0-37.35-95.5-39.56-140.44-.1-1.81-.13-3.53-.1-5.16.75-42.27-38.28-152.34-27.75-174.89s95.58,10.14,95.58,10.14l1.69,76.69Z"/><path class="cls-22" d="M1233.68,1460.86l-69.42,93.22c-.1-1.81-.13-3.53-.1-5.16.75-42.27-38.28-152.34-27.75-174.89s95.58,10.14,95.58,10.14Z"/><path class="cls-29" d="M1097.74,1689.12s4.81,9.39,15.48,11.71a26.69,26.69,0,0,1,16,9.86,6.26,6.26,0,0,1-5,10h-54.12a7.79,7.79,0,0,1-7.74-8.57c.4-4,.83-8.67,1-12.25.4-7.82,8.23-14.11,8.23-14.11Z"/><path class="cls-30" d="M1182.24,1386s-75.17,280.53-77.47,308c0,0-14.67,7.52-38.47-5.76,0,0-13.82-125.74,0-160.1s-2.74-138.22,32.41-161.65S1182.24,1386,1182.24,1386Z"/><path class="cls-27" d="M1191.22,1163.67l-46.16,23.59-9.25-32s5.88-11.08,8.54-29.24a121.29,121.29,0,0,0,1-26.35l37.61,19.25a70.84,70.84,0,0,0-1.5,8.61,62.47,62.47,0,0,0,.65,20.12C1183.43,1153.73,1186.16,1159.55,1191.22,1163.67Z"/><path class="cls-31" d="M1229.57,1204.33c.26-3.84,23.37-19.45,23.37-19.45,4.86-29.18-13.71-50.19-13.71-50.19l-27.83,19.8c-5.37.32-7.68,2.28-7.68,2.28-4.6-1.25-18.34-.15-18.34-.15.2,6.63-1.56,12.84-13.21,14.36-15.49,2-29.34-8.55-36.36-15.74a58.71,58.71,0,0,0-21.15,3,31.65,31.65,0,0,0-11.78-3.09l-22.78-20.48s-26.69,7.7-30.9,47.93c0,0,30,22.8,32.13,40.82h0l.82,6.83,2.9,24.19,5.11,42.42L1075,1381.39a12.81,12.81,0,0,0-.21,2.21,12.46,12.46,0,0,0,9.54,12.09s1.31.22,3.72.55c16.13,2.27,81.62,10.08,133-3.86a24.93,24.93,0,0,0,18.19-26.09L1228.29,1230h0S1229.32,1208.17,1229.57,1204.33Z"/><path class="cls-32" d="M1108.78,1332.44c-1,29.48-3.91,54.47-20.78,63.8-2.41-.33-3.72-.55-3.72-.55a12.46,12.46,0,0,1-9.54-12.09,12.81,12.81,0,0,1,.21-2.21l15.21-84.51-5.11-42.42.38-1.14S1110.07,1294.69,1108.78,1332.44Z"/><path class="cls-33" d="M1182.07,1147.63c-21.39-.57-37.72-21.63-37.72-21.63l37.07,1.51A62.47,62.47,0,0,0,1182.07,1147.63Z"/><path class="cls-27" d="M1192.44,1135.72s-42.66,11.26-57.37-22.66c-15.88-36.6,1.54-63.27,16-65.07,28.88-3.59,45.66,7.42,50.74,19.07S1216,1129.72,1192.44,1135.72Z"/><path class="cls-28" d="M1175.53,1116.62s1.79,4.4,13,1.93c0,0,9.45-2.07,8.37-7C1196.94,1111.51,1187.14,1109.38,1175.53,1116.62Z"/><path class="cls-22" d="M1142.69,1124.93s-5-14.68-4.41-22.52c0,0-11.13-14.19-4.64-17.7s10,4.88,11.47,3.23,3.8-29.54,11.68-28.66,37,9.92,49.79-1.1-18.22-54.06-70.74-37.43S1094.05,1095.77,1142.69,1124.93Z"/><path class="cls-22" d="M1109.93,1043.65s-2.38-7.1.18-12.17c0,0,.12,7,2.86,10.09S1109.93,1043.65,1109.93,1043.65Z"/><path class="cls-22" d="M1111,1038.69s-6.5-.74-9.57,4.26a8.35,8.35,0,0,1,9.2.18Z"/><path class="cls-26" d="M1091,1129.24s26.45,5.44,28.78,8.27,19,22.5,11.33,24.84-20.7-6.67-24.85-8.67-9.19-3.85-9.19-3.85Z"/><rect class="cls-34" x="2885.48" y="1383.48" width="271.38" height="159.77"/><rect class="cls-19" x="2783.9" y="1338.71" width="421.75" height="28.72"/><rect class="cls-19" x="2819.89" y="1367.43" width="36.9" height="349.42"/><polygon class="cls-35" points="2856.79 1388.37 2819.89 1410.51 2819.89 1367.43 2856.79 1367.43 2856.79 1388.37"/><rect class="cls-35" x="2897.91" y="1361.05" width="7.98" height="32.51"/><rect class="cls-35" x="3134.45" y="1361.05" width="7.98" height="32.51"/><path class="cls-28" d="M2955.28,1439.45a23.44,23.44,0,0,1,7.84,1.2,19.41,19.41,0,0,1,5.65,3,13.08,13.08,0,0,1,3.42,3.95,10.24,10.24,0,0,1,1.29,4.09,1.44,1.44,0,0,1-.5,1.29,1.88,1.88,0,0,1-1.29.5H2967a2.73,2.73,0,0,1-1.69-.43,4.34,4.34,0,0,1-1-1.16,8.71,8.71,0,0,0-3-2.89,11.75,11.75,0,0,0-6-1.23,14.62,14.62,0,0,0-3.29.36,9.42,9.42,0,0,0-2.72,1.07,5.64,5.64,0,0,0-1.83,1.69,4,4,0,0,0-.66,2.26,4.46,4.46,0,0,0,.63,2.49,5,5,0,0,0,2.12,1.66,21.57,21.57,0,0,0,4,1.3c1.64.39,3.67.86,6.11,1.39a42.48,42.48,0,0,1,6.87,2,15.8,15.8,0,0,1,4.72,2.79,10.21,10.21,0,0,1,2.72,3.75,12.34,12.34,0,0,1,.9,4.85,11.84,11.84,0,0,1-1.33,5.55,12.82,12.82,0,0,1-3.78,4.38,19.22,19.22,0,0,1-6,2.89,28.21,28.21,0,0,1-8,1.06,27.9,27.9,0,0,1-7.1-.89,21.19,21.19,0,0,1-6-2.59,14.31,14.31,0,0,1-4.21-4.09,10.64,10.64,0,0,1-1.8-5.32,1.46,1.46,0,0,1,.5-1.29,1.93,1.93,0,0,1,1.3-.5h4.65a3.06,3.06,0,0,1,1.72.4,3.09,3.09,0,0,1,1,1.2,13,13,0,0,0,1.13,1.72,6,6,0,0,0,1.79,1.53,11.07,11.07,0,0,0,2.83,1.1,17.2,17.2,0,0,0,4.21.43,24.24,24.24,0,0,0,3.86-.3,11.08,11.08,0,0,0,3.25-1A7,7,0,0,0,2965,1476a3.88,3.88,0,0,0,.86-2.56,3.24,3.24,0,0,0-.93-2.39,7.56,7.56,0,0,0-2.82-1.6,40,40,0,0,0-4.68-1.26q-2.79-.6-6.45-1.53a34.49,34.49,0,0,1-5.81-1.89A13.81,13.81,0,0,1,2941,1462a10.06,10.06,0,0,1-2.42-3.75,14.94,14.94,0,0,1-.8-5.15,11.59,11.59,0,0,1,1.33-5.51,13,13,0,0,1,3.65-4.32,17.91,17.91,0,0,1,5.55-2.83A22.88,22.88,0,0,1,2955.28,1439.45Z"/><path class="cls-28" d="M2980.79,1457.46a23.38,23.38,0,0,1,1.43-7,15.9,15.9,0,0,1,3.62-5.71,17.25,17.25,0,0,1,6-3.86,23,23,0,0,1,8.5-1.43,23.28,23.28,0,0,1,8.44,1.4,16.51,16.51,0,0,1,6,3.85,16.78,16.78,0,0,1,3.66,5.72,22.56,22.56,0,0,1,1.46,7c0,.84.08,1.77.1,2.79s0,2.07,0,3.15,0,2.14,0,3.16-.06,2-.1,2.79a23.31,23.31,0,0,1-1.43,7,16.08,16.08,0,0,1-3.62,5.72,16.85,16.85,0,0,1-6,3.82,26.59,26.59,0,0,1-17,0,16.89,16.89,0,0,1-6-3.82,15.94,15.94,0,0,1-3.62-5.72,23.31,23.31,0,0,1-1.43-7c-.05-.84-.08-1.77-.1-2.79s0-2.07,0-3.16,0-2.13,0-3.15S2980.74,1458.3,2980.79,1457.46Zm30.09.33a10.56,10.56,0,0,0-21.12,0c-.09,1.68-.14,3.55-.14,5.61s.05,3.93.14,5.61a10.29,10.29,0,0,0,3.09,7.38,12.07,12.07,0,0,0,14.94,0,10.37,10.37,0,0,0,3.09-7.38c.09-1.68.13-3.55.13-5.61S3011,1459.47,3010.88,1457.79Z"/><path class="cls-28" d="M3059.51,1478.31a1.83,1.83,0,0,1,1.79,1.8v4.71a1.81,1.81,0,0,1-1.79,1.8h-29.1a1.81,1.81,0,0,1-1.79-1.8v-42.91a1.7,1.7,0,0,1,.53-1.26,1.72,1.72,0,0,1,1.26-.53h5.38a1.83,1.83,0,0,1,1.8,1.79v36.4Z"/><path class="cls-28" d="M3085.88,1440.12a25.43,25.43,0,0,1,8.53,1.29,16.41,16.41,0,0,1,6.05,3.69,16.12,16.12,0,0,1,3.72,5.78,25.87,25.87,0,0,1,1.56,7.57,89.54,89.54,0,0,1,0,9.83,25.94,25.94,0,0,1-1.56,7.58,16.19,16.19,0,0,1-3.69,5.78,16,16,0,0,1-5.94,3.68,24.19,24.19,0,0,1-8.34,1.3h-16.74a1.81,1.81,0,0,1-1.79-1.8v-42.91a1.7,1.7,0,0,1,.53-1.26,1.72,1.72,0,0,1,1.26-.53Zm10.89,18.33a13.29,13.29,0,0,0-.83-4,8.9,8.9,0,0,0-2.06-3.19,9.37,9.37,0,0,0-3.42-2.12,14.1,14.1,0,0,0-4.91-.77h-8.9v29.89h9.23a13.1,13.1,0,0,0,4.71-.76,9.51,9.51,0,0,0,3.33-2.09,8.87,8.87,0,0,0,2-3.19,13.62,13.62,0,0,0,.83-4A89.54,89.54,0,0,0,3096.77,1458.45Z"/><path class="cls-21" d="M1531.59,1717.35s32.85-70,106.77-70.92,114.7-87.18,183.63-83.07,77.13,71.69,126.41,83.07,184.79-13.12,193,75.1Z"/><path class="cls-21" d="M1690.72,1646.43c0-.94-53.38-99.78-72.89-83.21S1690.72,1646.43,1690.72,1646.43Z"/><path class="cls-21" d="M1671.21,1649.59s-47.73-29.25-70.32-22.07S1671.21,1649.59,1671.21,1649.59Z"/><path class="cls-21" d="M1787.74,1589.54c.51-3.08-1-80.59-26.7-70.84S1787.74,1589.54,1787.74,1589.54Z"/><path class="cls-21" d="M1803.14,1575.16c1-1.54,16.42-43.11,5.13-43.11s-4.11,41.57-4.11,41.57Z"/><path class="cls-27" d="M2026.69,1144.76c-.61-.2-1.24-.41-1.87-.64-3.17-1.13-9.6-9.44-9.6-9.44l-12.1,13.07,8.31,8.77c4.74,11.11,4.83,11.32,19.17,13.48,12.43,1.87,10.41,9.78,19.05,12s7.48-10.06,7.48-10.06c-3.34-19.38-7-21.92-15.32-23.64,2.76-1,4.6-2.44,4-4.27-.51-1.61-4.78.15-13.25-.91C2031.31,1142.92,2028.88,1143.8,2026.69,1144.76Z"/><path class="cls-36" d="M2017.18,1151.85a92.31,92.31,0,0,0,6.73-20s-81.64-53.68-88.8-59.67S1853.74,957,1853.74,957l-87,7s116,133.89,134.44,148.7c30.46,24.48,106.58,51,106.58,51A38.79,38.79,0,0,0,2017.18,1151.85Z"/><path class="cls-24" d="M1956.93,1720.58h-89.38c-4.3-5.25-2.71-24.61-2.06-30.92.13-1.28.22-2,.22-2s30.53-24.41,34.72-5.72c.13.59.28,1.16.45,1.73,5.28,17.48,29,25.43,42.65,27.64C1952.43,1712.73,1955.72,1717.35,1956.93,1720.58Z"/><path class="cls-24" d="M1838.63,1720.58h-89.38c-4.3-5.25-2.71-24.61-2.06-30.92.13-1.28.22-2,.22-2s30.52-24.41,34.72-5.72c.12.59.28,1.16.45,1.73,5.28,17.48,29,25.43,42.65,27.64C1834.13,1712.73,1837.41,1717.35,1838.63,1720.58Z"/><path class="cls-23" d="M1919.68,1223.61s0,54.48.18,125.4c.23,94.7-6.35,210.39-7.23,232.36-1.52,38.15-7.63,99.17-7.63,99.17s-14.49,14.5-43.48,8.39c0,0-25.84-87.11-33.22-179.29-.12-1.51-.23-3-.35-4.55-6.86-93.83-17.54-291.42-17.54-291.42Z"/><path class="cls-24" d="M1919.68,1223.61s0,52.4.18,125.4L1836,1572.81c-.12-1.51-7.93-66.2-8-67.72-6.86-93.83-17.54-291.42-17.54-291.42Z"/><path class="cls-23" d="M1875.83,1205s-11.28,150.12-27.2,275.62c-20.26,109.51-56.14,210.29-56.14,210.29s-43.58,4.13-48.32-3.58c0,0-8.72-136.15,11-207.54,8.92-32.21-5.69-119.62-8.86-166-4.1-60,8.93-114.34,8.93-114.34Z"/><path class="cls-27" d="M1873,923.27c-32.65,10.3-89.13-17.5-89.13-17.5s30.1-22.58,28.52-69.55l25.24,20.34,17.15,13.82a204.47,204.47,0,0,1-2,22.41c-.49,3.76-1.11,7.94-1.89,12.52A78.1,78.1,0,0,1,1873,923.27Z"/><path class="cls-33" d="M1854.82,870.38a204.47,204.47,0,0,1-2,22.41c-19-3.26-40.54-34-40.54-34,9.67-2.79,18.14-3.29,25.34-2.27Z"/><path class="cls-27" d="M1864.8,869.6s-53.92,9-59-24.7-15.43-55.18,18.78-62.33,42.85,4.7,47.27,15.52S1878.7,866.4,1864.8,869.6Z"/><path class="cls-31" d="M1921.58,1226.42a5.32,5.32,0,0,1-3.43,1.31c-12.26-.17-51,6.71-81.23,3.61-25.5-2.45-48.07-10-72.31-20.87-3.22-1.44-10.62-5.39-10.46-9,.11-3.94.5-9.65,1-16.85,1.71-25,4.7-68,1.79-117.68-.53-9.24-.8-18.41-.84-27.44-.25-67.28,13.09-126.45,39.9-146.48,2.29-1.64,16.35,5.23,29.26,11.6a53.39,53.39,0,0,0,35.14,4.25l11.28,10c13.73,12.75,28.77,30.08,35.31,56.39,5.56,22.4,8.83,62.78,10.62,104.62.82,19,1.48,38.09,1.65,56.24v.65c.15,1.8.15,3.76.15,5.56C1920.07,1188.9,1922.4,1225.76,1921.58,1226.42Z"/><path class="cls-24" d="M1805.78,841.66s5.53-.93,4.64-8.55-.88-17.58,5.31-15.73,6.51,6.82,9,3.92,2.59-15.1,21-15.95,25.93,5.57,34.51,1.8,9-16.75,9-16.75-2.44,4.64-6.12,6.11c0,0,14.3-19.56-2.26-33s-33.44-4.63-43-4c-21.11,1.28-34.75,2.54-41.65,16.42S1792.23,828.3,1805.78,841.66Z"/><path class="cls-24" d="M2291.65,1256.61l13.11-1.87h0c.91-.22,1.82-.4,2.77-.54l23.91-3.4-1.6-11.22a9.5,9.5,0,0,1,8.07-10.75l6.23-.89,25.1-3.58,4.52-.64a9.51,9.51,0,0,1,10.75,8.06l1.6,11.23,41.26-5.88a28.89,28.89,0,0,1,32.58,24.45l7.49,52.63a28.89,28.89,0,0,1-24.45,32.57l-119.83,17.08a28.48,28.48,0,0,1-6.24.2l-9.79,1.39a28.77,28.77,0,0,1-32.45-24.36l-7.41-52A28.77,28.77,0,0,1,2291.65,1256.61Zm87-24a3.54,3.54,0,0,0-2.94-3,3.48,3.48,0,0,0-1.07,0l-5.33.75-19.76,2.82-10.76,1.54a3.54,3.54,0,0,0-3,4l1.59,11.23,42.88-6.11Z"/><path class="cls-36" d="M1755.22,1184.71c1.72-25,4.71-68,1.79-117.68-.52-9.24-.8-18.41-.83-27.44,11.17-27.09,20.29-46.73,20.29-46.73h28.15S1825.26,1133.81,1755.22,1184.71Z"/><path class="cls-27" d="M1695.65,1203.28c0-.64.07-1.3.12-2,.25-3.36,6.56-11.75,6.56-11.75l-15.81-8.21-6.26,10.34c-9.45,7.53-9.62,7.66-7.9,22.06,1.49,12.48-6.67,12.63-6.48,21.55s11.68,4.53,11.68,4.53c17.81-8.36,19.28-12.56,18.73-21,1.69,2.4,3.58,3.79,5.18,2.75,1.42-.92-1.4-4.57-2.63-13C1698.65,1207.25,1697.16,1205.14,1695.65,1203.28Z"/><path class="cls-31" d="M1686.3,1196a92.1,92.1,0,0,0,21.12,1.18s30.09-93,34-101.45,89.38-109,89.38-109l-35.62-89.15s-92.48,154.49-101.87,176.19c-15.52,35.87-20.91,116.3-20.91,116.3A38.7,38.7,0,0,0,1686.3,1196Z"/><path class="cls-26" d="M2345.62,1210.1c.07-.64.14-1.29.21-2,.31-3.35-4.51-12.68-4.51-12.68l16.95-5.46,4.45,11.24c8.07,9,8.34,10.86,9.49,23.42s-1.25,10.69-4.78,12.14a61.07,61.07,0,0,1-11.61,3.39,19.55,19.55,0,0,1-10.74-.89c-4.47-1.74-5-4.09-4.45-7.25a2.81,2.81,0,0,0-3-3.21,1.31,1.31,0,0,1-.93-.37c-1.25-1.14,2.27-5.6,4.89-13.73C2342,1213.52,2343.82,1211.68,2345.62,1210.1Z"/><path class="cls-24" d="M2356.06,1204.47a92.25,92.25,0,0,1-21-2.36s-14.19-96.66-16.6-105.68-70-122.36-70-122.36l61.45-48.51s54,134.27,59.64,157.24c9.33,38,1.25,118.15,1.25,118.15A38.88,38.88,0,0,1,2356.06,1204.47Z"/><path class="cls-24" d="M2378.13,1720.58h39.08c4.92-2.67,9.3-8.79,10.69-17.91,1.91-12.59,16-19.46,19.07-29.76s-12.59-24.78-12.59-24.78l-2.61-3.38-2.73-3.5-25.94,6.11s-.64,6.18-1,14.05a179.79,179.79,0,0,0-.11,18c.76,13.73-3.84,28.52-16,31.2C2376.9,1712.57,2377.3,1717.92,2378.13,1720.58Z"/><path class="cls-24" d="M2151.31,1720.58h89.38c4.29-5.25,2.71-24.61,2.06-30.92-.13-1.28-.23-2-.23-2s-30.52-24.41-34.71-5.72c-.13.59-.28,1.16-.45,1.73-5.28,17.48-29,25.43-42.66,27.64C2155.81,1712.73,2152.52,1717.35,2151.31,1720.58Z"/><path class="cls-37" d="M2168.34,1221.68s4.63,57.82,10.08,127.33c7.4,94.41,16.31,210.39,17.19,232.36,1.52,38.15,7.63,99.17,7.63,99.17s14.49,14.5,43.48,8.39c0,0,25.84-87.11,33.22-179.29.12-1.51.23-3,.34-4.55,6.87-93.83,17.55-291.42,17.55-291.42Z"/><path class="cls-38" d="M2168.34,1221.68s4.63,57.82,10.08,127.33l101.52,160.63c.12-1.51.23-3,.34-4.55,6.87-93.83,17.55-291.42,17.55-291.42Z"/><path class="cls-37" d="M2189.5,1228.55S2273,1438,2328,1536.36s72.09,125.88,72.09,125.88,31.47-12.59,34.33-21.17c0,0-21-190-57.78-236.3-20.79-26.17-45.2-104.71-46.35-132.17s-7.44-81.82-7.44-81.82Z"/><path class="cls-26" d="M2210.3,923.27c32.64,10.3,89.12-17.5,89.12-17.5s-30.1-22.58-28.52-69.55l-25.24,20.34-17.14,13.82a205.62,205.62,0,0,0,1.94,22.41c.5,3.76,1.11,7.94,1.89,12.52A78.14,78.14,0,0,0,2210.3,923.27Z"/><path class="cls-39" d="M2228.52,870.38a205.62,205.62,0,0,0,1.94,22.41c19-3.26,40.55-34,40.55-34-9.68-2.79-18.15-3.29-25.35-2.27Z"/><path class="cls-26" d="M2218.53,869.6s53.92,9,59-24.7,15.43-55.18-18.78-62.33-42.85,4.7-47.27,15.52S2204.64,866.4,2218.53,869.6Z"/><path class="cls-23" d="M2164.74,1226.5a5.29,5.29,0,0,0,3.43,1.3c12.26-.16,48,6.64,78.25,3.54,25.49-2.45,48.06-10,72.3-20.87,3.22-1.44,10.62-5.39,10.46-9-.11-3.94-.5-9.65-1-16.85-1.72-25-4.71-68-1.79-117.68.52-9.24.8-18.41.83-27.44.25-67.28-13.09-126.45-39.9-146.48-2.29-1.64-16.34,5.23-29.26,11.6a53.38,53.38,0,0,1-35.14,4.25l-11.28,10c-13.73,12.75-28.77,30.08-35.31,56.39-5.56,22.4-8.82,62.78-10.62,104.62-.82,19-1.48,38.09-1.64,56.24v.65c-.16,1.8-.16,3.76-.16,5.56C2163.26,1188.9,2163.92,1225.84,2164.74,1226.5Z"/><path class="cls-26" d="M2056.65,1144.76c.61-.2,1.23-.41,1.87-.64,3.17-1.13,9.59-9.44,9.59-9.44l12.1,13.07-8.31,8.77c-4.74,11.11-4.82,11.32-19.17,13.48-12.43,1.87-10.4,9.78-19,12s-7.47-10.06-7.47-10.06c3.33-19.38,7-21.92,15.32-23.64-2.76-1-4.61-2.44-4-4.27.51-1.61,4.78.15,13.25-.91C2052,1142.92,2054.45,1143.8,2056.65,1144.76Z"/><path class="cls-23" d="M2066.16,1151.85a92,92,0,0,1-6.74-20s81.64-53.68,88.8-59.67S2229.59,957,2229.59,957l87,7s-116,133.89-134.43,148.7c-30.47,24.48-106.58,51-106.58,51A38.79,38.79,0,0,1,2066.16,1151.85Z"/><path class="cls-23" d="M2277.56,841.66s-5.54-.93-4.64-8.55.88-17.58-5.32-15.73-6.5,6.82-9,3.92-2.59-15.1-21-15.95-25.93,5.57-34.5,1.8-9-16.75-9-16.75,2.44,4.64,6.12,6.11c0,0-14.3-19.56,2.26-33s33.45-4.63,43-4c21.12,1.28,34.76,2.54,41.66,16.42S2291.11,828.3,2277.56,841.66Z"/><path class="cls-24" d="M2164.24,1124.65s71.08-23.54,96.17-52.45c25.46-29.33,71.44-83,71.44-83l-.44-1.79a232.6,232.6,0,0,0-15-42.57h0s-6.21,36.88-25.31,62.34L2272,1032.63S2240.62,1086.6,2164.24,1124.65Z"/><rect class="cls-40" x="379.43" y="1717.84" width="2885.12" height="7.65" rx="3.27"/><path class="cls-41" d="M1556.28,1597.43a117.79,117.79,0,0,0-84.57-111.11l-.18-11.48h0l-.43-26.81-11.85.19-.3-19.06,11.84-.19-.15-9.54-11.85.19-.17-11,11.84-.19-.25-15.4-5.6.09-.32-19.81,5.6-.09-.14-8.8-10.89.18-.38-23.62,10.89-.18-.29-18.18-11.84.19-.31-19.44,11.84-.19-.36-22.62a11,11,0,0,0-2.86-7.21l-29.13-32a11,11,0,0,0-10.66-3.27h0c-.35.09-.7.2-1,.32l-.28.1c-.27.11-.54.22-.8.35l-.3.14c-.34.18-.68.37-1,.58l-19.18,12.61a10.94,10.94,0,0,0-4.94,9.33l3.62,225.89a117.74,117.74,0,1,0,154.48,110ZM1439.79,1676a23.84,23.84,0,1,1,23.46-24.22A23.84,23.84,0,0,1,1439.79,1676Z"/><path class="cls-42" d="M1479.85,1554.5l-1.72-107.08-11.84.19-.31-19.07,11.85-.19-.16-9.54-11.84.19-.18-11,11.85-.19-.25-15.4-5.61.09-.32-19.8,5.61-.09-.14-8.8-10.89.17-.38-23.62,10.89-.18-.29-18.18-11.84.19-.31-19.44,11.84-.19-.37-22.62a11,11,0,0,0-2.85-7.21l-29.14-32a11,11,0,0,0-14.12-1.77l-19.18,12.6a11,11,0,0,0-4.93,9.34l4.37,272.68Z"/><path class="cls-43" d="M1447.49,1716.41a117.73,117.73,0,1,0-119.61-115.82A117.72,117.72,0,0,0,1447.49,1716.41Zm-1.43-88.74a23.84,23.84,0,1,1-23.45,24.22A23.84,23.84,0,0,1,1446.06,1627.67Z"/><path class="cls-44" d="M1327.88,1600.59a117.73,117.73,0,1,0,150.87-114.89l-.19-11.48c-14.84.54-22.27-3.52-26.28-8-11.26-12.73-3.57-203.17-13.46-228.39a10.92,10.92,0,0,0-9.49,1.22l-19.18,12.6a11,11,0,0,0-4.93,9.34l3.62,225.88A117.78,117.78,0,0,0,1327.88,1600.59Zm118.95,74.75a23.84,23.84,0,1,1,23.45-24.22A23.84,23.84,0,0,1,1446.83,1675.34Z"/><path class="cls-45" d="M1447.12,1693.31a94.62,94.62,0,1,0-96.13-93.09A94.62,94.62,0,0,0,1447.12,1693.31Zm-1.06-65.64a23.84,23.84,0,1,1-23.45,24.22A23.84,23.84,0,0,1,1446.06,1627.67Z"/></svg>